<svg width="31" height="31" viewBox="0 0 31 31" fill="none" xmlns="http://www.w3.org/2000/svg">
<g clip-path="url(#clip0_628_441)">
<path fill-rule="evenodd" clip-rule="evenodd" d="M11.7223 26.4375C11.5497 26.4375 11.4098 26.5774 11.4098 26.75C11.4098 26.9226 11.5497 27.0625 11.7223 27.0625C11.8949 27.0625 12.0348 26.9226 12.0348 26.75C12.0348 26.5774 11.8949 26.4375 11.7223 26.4375ZM9.53479 26.75C9.53479 25.5419 10.5142 24.5625 11.7223 24.5625C12.9304 24.5625 13.9098 25.5419 13.9098 26.75C13.9098 27.9581 12.9304 28.9375 11.7223 28.9375C10.5142 28.9375 9.53479 27.9581 9.53479 26.75Z" fill="#1E2E36"/>
<path fill-rule="evenodd" clip-rule="evenodd" d="M25.4723 26.4375C25.2997 26.4375 25.1598 26.5774 25.1598 26.75C25.1598 26.9226 25.2997 27.0625 25.4723 27.0625C25.6449 27.0625 25.7848 26.9226 25.7848 26.75C25.7848 26.5774 25.6449 26.4375 25.4723 26.4375ZM23.2848 26.75C23.2848 25.5419 24.2642 24.5625 25.4723 24.5625C26.6804 24.5625 27.6598 25.5419 27.6598 26.75C27.6598 27.9581 26.6804 28.9375 25.4723 28.9375C24.2642 28.9375 23.2848 27.9581 23.2848 26.75Z" fill="#1E2E36"/>
<path fill-rule="evenodd" clip-rule="evenodd" d="M0.78479 1.75C0.78479 1.23223 1.20452 0.8125 1.72229 0.8125H6.72229C7.16913 0.8125 7.55387 1.12786 7.64155 1.56601L8.74168 7.0625H29.2223C29.5017 7.0625 29.7665 7.18713 29.9447 7.4024C30.1228 7.61768 30.1955 7.90116 30.1432 8.17563L28.1419 18.6701C27.9847 19.4615 27.5542 20.1723 26.9258 20.6781C26.2998 21.182 25.5172 21.4506 24.714 21.4375H12.5806C11.7774 21.4506 10.9948 21.182 10.3689 20.6781C9.7407 20.1725 9.31033 19.4621 9.15298 18.6713L7.06298 8.2291C7.05569 8.20006 7.04975 8.17049 7.04524 8.14044L5.95384 2.6875H1.72229C1.20452 2.6875 0.78479 2.26776 0.78479 1.75ZM9.11695 8.9375L10.9918 18.3049C11.0633 18.6645 11.2589 18.9876 11.5446 19.2176C11.8303 19.4475 12.1877 19.5698 12.5543 19.5626L12.5723 19.5625H24.7223L24.7403 19.5626C25.1069 19.5698 25.4643 19.4475 25.75 19.2176C26.0348 18.9883 26.2302 18.6664 26.3022 18.3079L26.3028 18.3049L28.0892 8.9375H9.11695Z" fill="#1E2E36"/>
</g>
<defs>
<clipPath id="clip0_628_441">
<rect width="30" height="30" fill="white" transform="translate(0.47229 0.5)"/>
</clipPath>
</defs>
</svg>
